<?xml version="1.0" encoding="utf-8"?>
<!-- Generator: Adobe Illustrator 19.0.0, SVG Export Plug-In . SVG Version: 6.00 Build 0)  -->
<svg version="1.1" id="Layer_1" xmlns="http://www.w3.org/2000/svg" xmlns:xlink="http://www.w3.org/1999/xlink" x="0px" y="0px"
	 viewBox="-16.3 98.1 656.9 546.5" style="enable-background:new -16.3 98.1 656.9 546.5;" xml:space="preserve">
<style type="text/css">
	.st0{enable-background:new    ;}
</style>
<g class="st0">
	<path d="M110.9,417.5l-72.2-106l-25.1,24.2v81.8h-29.9V98.1h29.9v199.8l90.2-86.2h38.7l-83.2,80.1l84.9,125.8H110.9z"/>
	<path d="M367,211.6v205.9H337v-30.4c-8.5,11.7-18.9,20.9-31.2,27.5c-12.3,6.6-25.8,9.9-40.5,9.9c-19.7,0-37.3-4.7-52.8-14.1
		c-15.6-9.4-27.7-22.4-36.5-39.2c-8.8-16.7-13.2-35.8-13.2-57.2c0-21.1,4.3-40,13-56.5c8.6-16.6,20.7-29.5,36.1-38.9
		c15.4-9.4,32.9-14.1,52.6-14.1c15,0,28.7,3.3,41.1,9.9c12.5,6.6,22.9,15.9,31.5,27.9v-30.8H367z M302.1,386.7
		c11-7,19.6-16.9,25.7-29.5c6.2-12.6,9.2-26.8,9.2-42.7s-3.1-30.1-9.2-42.7c-6.2-12.6-14.7-22.4-25.7-29.5s-23.5-10.6-37.6-10.6
		c-13.8,0-26.1,3.5-37,10.6c-10.9,7-19.4,16.8-25.5,29.3c-6.2,12.5-9.2,26.6-9.2,42.5c0,16.1,3.1,30.5,9.2,43.1
		c6.2,12.6,14.7,22.4,25.5,29.5c10.8,7,23.2,10.6,37,10.6C278.5,397.3,291.1,393.8,302.1,386.7z"/>
	<path d="M433.4,417.5V238.9h-35.2v-27.3h35.2v-68.2h29.9v68.2h47.5v27.3h-47.5v178.6H433.4z"/>
	<path d="M540.7,321.6V297h99.9v24.6H540.7z"/>
</g>
<g class="st0">
	<path d="M105.2,427.7v27.3c-6.2-2.9-12.9-4.4-20.2-4.4c-12.6,0-24.4,3.5-35.2,10.6c-10.9,7-19.6,17.2-26.2,30.6
		c-6.6,13.4-9.9,29.1-9.9,47.3v98.6h-29.9V431.6h29.9V473c7.9-15.2,18-27.1,30.1-35.6c12.2-8.5,25.9-12.8,41.1-12.8
		C92,424.6,98.7,425.6,105.2,427.7z"/>
	<path d="M165.4,630.5c-15.6-9.4-27.7-22.5-36.5-39.4c-8.8-16.9-13.2-35.9-13.2-57c0-21.1,4.3-40,13-56.5
		c8.6-16.6,20.7-29.5,36.1-38.9c15.4-9.4,32.9-14.1,52.6-14.1c19.6,0,37.2,4.7,52.8,14.1c15.5,9.4,27.7,22.4,36.5,39.2
		c8.8,16.7,13.2,35.6,13.2,56.8s-4.3,40-13,56.8c-8.7,16.7-20.7,29.8-36.1,39.2s-32.9,14.1-52.6,14.1
		C198.6,644.6,181,639.9,165.4,630.5z M255,606.7c11-7,19.6-16.9,25.7-29.5c6.2-12.6,9.2-26.8,9.2-42.7s-3.1-30.1-9.2-42.7
		c-6.2-12.6-14.7-22.4-25.7-29.5s-23.5-10.6-37.6-10.6c-13.8,0-26.1,3.5-37,10.6c-10.9,7-19.4,16.8-25.5,29.3
		c-6.2,12.5-9.2,26.6-9.2,42.5c0,16.1,3.1,30.5,9.2,43.1c6.2,12.6,14.7,22.4,25.5,29.5c10.8,7,23.2,10.6,37,10.6
		C231.4,617.3,244,613.8,255,606.7z"/>
	<path d="M500.1,433.4c12.2,5.9,21.8,14.5,29,26c7.2,11.4,10.8,24.9,10.8,40.5v137.7H510V513c0-40.8-18.2-61.2-54.6-61.2
		c-21.1,0-37,7.5-47.5,22.4c-10.6,15-15.8,35.1-15.8,60.3v103h-29.9V431.6H392v34.3c7-13.2,16.3-23.4,27.9-30.6
		c11.6-7.2,25-10.8,40.3-10.8C474.6,424.6,487.9,427.5,500.1,433.4z"/>
</g>
</svg>
